<svg id="eyedropper" xmlns="http://www.w3.org/2000/svg" viewBox="0 0 120 120">
  <path d="M164.062,996.756c2.502-2.504,4.922-5.824,1.414-9.334l-1.414-1.414c-3.551-3.549-7.027-0.893-9.334,1.414l-6.375,6.375
    c-0.097,0.098-0.171,0.207-0.255,0.312l-3.106-3.107c-0.643-0.643-1.672-0.658-2.297-0.033l-2.828,2.828
    c-0.623,0.625-0.609,1.654,0.033,2.297l2.229,2.229l-17.96,17.961c-1.447,1.445-2.193,3.887-1.773,5.805
    c0,0.117-0.143,0.518-0.264,0.65l-0.703,0.703c-1.871,1.871-1.912,4.879-0.09,6.701c1.824,1.824,4.83,1.783,6.701-0.088
    l0.707-0.707c0.129-0.117,0.531-0.26,0.713-0.252c1.852,0.41,4.295-0.336,5.74-1.781l17.961-17.961l2.229,2.229
    c0.643,0.643,1.672,0.658,2.295,0.033l2.828-2.828c0.625-0.623,0.609-1.652-0.033-2.295l-3.106-3.107
    c0.104-0.084,0.215-0.156,0.312-0.254L164.062,996.756z M133.221,1025.334c-0.777,0.777-2.229,1.234-3.227,1.018
    c-0.996-0.219-2.449,0.238-3.227,1.016l-0.707,0.707c-0.777,0.777-2.01,0.816-2.74,0.088c-0.729-0.729-0.688-1.963,0.09-2.74
    l0.707-0.707c0.777-0.777,1.234-2.229,1.016-3.227c-0.219-0.996,0.238-2.447,1.016-3.225l17.962-17.961l7.071,7.07
    L133.221,1025.334z"/>
  <path opacity="0.3" d="M126.412,1018l-0.264,0.264c-0.777,0.777-1.234,2.229-1.016,3.225c0.219,0.998-0.238,2.449-1.016,3.227
    l-0.707,0.707c-0.777,0.777-0.818,2.012-0.09,2.74c0.73,0.729,1.963,0.689,2.74-0.088l0.707-0.707
    c0.777-0.777,2.23-1.234,3.227-1.016c0.998,0.217,2.449-0.24,3.227-1.018l7.334-7.334H126.412z"/>
</svg>