<?xml version="1.0" encoding="utf-8"?>
<!-- Generator: Adobe Illustrator 19.1.0, SVG Export Plug-In . SVG Version: 6.00 Build 0)  -->
<svg version="1.1" id="Layer_1" xmlns="http://www.w3.org/2000/svg" xmlns:xlink="http://www.w3.org/1999/xlink" x="0px" y="0px"
	 viewBox="0 0 48 48" style="enable-background:new 0 0 48 48;" xml:space="preserve">
<g id="tint_2_">
	<path d="M12.893,28.092c0,4.349,4.128,6.971,7.68,6.971c3.552,0,7.68-2.673,7.68-7.021c0-5.933-5.813-9.327-7.68-15.569
		C18.626,18.715,12.893,22.16,12.893,28.092z M18.573,31.511c-2.183-0.104-3.614-1.767-3.625-3.42
		c-0.011-1.653,0.885-3.772,1.648-5.08c0.498-0.917,1.482-0.714,1.261,0c-0.435,1.317-0.67,3.324-0.67,4.864
		c0,1.123,0.553,2.209,1.386,2.581C19.406,30.828,19.615,31.459,18.573,31.511z"/>
	<path d="M27.664,18.81c0,2.174,2.064,3.485,3.84,3.485c1.776,0,3.84-1.337,3.84-3.511c0-2.966-2.906-4.663-3.84-7.784
		C30.53,14.121,27.664,15.844,27.664,18.81z M30.504,20.519c-1.091-0.052-1.807-0.883-1.812-1.709
		c-0.005-0.827,0.442-1.887,0.824-2.541c0.249-0.458,0.741-0.357,0.63,0c-0.218,0.659-0.335,1.662-0.335,2.433
		c0,0.561,0.276,1.104,0.693,1.29C30.92,20.178,31.025,20.493,30.504,20.519z"/>
</g>
</svg>
